<?xml version="1.0" standalone="no"?><!DOCTYPE svg PUBLIC "-//W3C//DTD SVG 1.1//EN" "http://www.w3.org/Graphics/SVG/1.1/DTD/svg11.dtd" ><svg xmlns="http://www.w3.org/2000/svg"><metadata></metadata><defs><font id="Myriad Set Pro Thin; 10.0d6e1; 2014-01-21" horiz-adv-x="808"><font-face font-family="MyriadSetPro-Thin" font-weight="300" font-stretch="normal" units-per-em="1000" panose-1="2 0 2 3 5 0 0 2 0 4" ascent="827" descent="-249" x-height="4" bbox="-9 -208 802 750" underline-thickness="50" underline-position="-75" unicode-range="U+0026-0076" /><missing-glyph horiz-adv-x="500" d="M63 0 l0 750 l375 0 l0 -750 l-375 0 ZM125 63 l250 0 l0 625 l-250 0 l0 -625 Z" /><glyph glyph-name="ampersand" unicode="&amp;" d="M492 0 q-16 17 -32 34 q-16 17 -40 42 q-50 -48 -99 -67.5 q-49 -19.5 -102 -19.5 q-41 0 -75.5 14.5 q-34.5 14.5 -59.5 40 q-25 25.5 -39 60 q-14 34.5 -14 73.5 q0 69 37.5 117 q37.5 48 94.5 82 l0 3 q-28 38 -43 74.5 q-15 36.5 -15 72.5 q0 30 10 59 q10 29 29 51 q19 22 47 35.5 q28 13.5 64 13.5 q26 0 49 -9.5 q23 -9.5 40 -26.5 q17 -17 27 -42 q10 -25 10 -56 q0 -54 -35 -97.5 q-35 -43.5 -119 -86.5 l0 -3 q25 -29 51 -59.5 q26 -30.5 51 -60 q25 -29.5 48.5 -56.5 q23.5 -27 42.5 -49 q25 39 41 92 q16 53 27 125 l45 0 q-13 -80 -33 -141.5 q-20 -61.5 -54 -103.5 q25 -26 50 -52 q25 -26 56 -59 l-60 0 ZM229 28 q52 0 93.5 21.5 q41.5 21.5 70.5 55.5 q-15 18 -38 44.5 q-23 26.5 -50.5 58 q-27.5 31.5 -58.5 66.5 q-31 35 -62 72 q-16 -10 -34.5 -24.5 q-18.5 -14.5 -34 -34.5 q-15.5 -20 -26 -46 q-10.5 -26 -10.5 -58 q0 -33 11 -61.5 q11 -28.5 31 -49.5 q20 -21 47.5 -32.5 q27.5 -11.5 60.5 -11.5 ZM247 646 q-24 0 -42 -9.5 q-18 -9.5 -30 -25 q-12 -15.5 -18 -36.5 q-6 -21 -6 -44 q0 -43 16.5 -75 q16.5 -32 36.5 -61 q60 32 96.5 66.5 q36.5 34.5 36.5 85.5 q0 18 -5 35.5 q-5 17.5 -15.5 32 q-10.5 14.5 -28 23 q-17.5 8.5 -41.5 8.5 Z" /><glyph glyph-name="comma" unicode="," d="M25 -126 q6 16 13.5 42 q7.5 26 15 56 q7.5 30 14 60.5 q6.5 30.5 9.5 53.5 l63 10 q-7 -28 -17.5 -61.5 q-10.5 -33.5 -22 -64.5 q-11.5 -31 -21.5 -56 q-10 -25 -16 -35 l-38 -5 Z" /><glyph glyph-name="hyphen" unicode="-" d="M267 294 l0 -41 l-237 0 l0 41 l237 0 Z" /><glyph glyph-name="at" unicode="@" d="M471 475 q-9 3 -24 6.5 q-15 3.5 -36 3.5 q-38 0 -71.5 -17 q-33.5 -17 -58.5 -45.5 q-25 -28.5 -39.5 -65.5 q-14.5 -37 -14.5 -78 q0 -37 19 -60.5 q19 -23.5 56 -23.5 q26 0 49.5 15 q23.5 15 43 38 q19.5 23 32.5 50 q13 27 18 51 l26 126 ZM503 30 q-38 -23 -81 -32.5 q-43 -9.5 -91 -9.5 q-60 0 -113.5 21.5 q-53.5 21.5 -93.5 61.5 q-40 40 -63 97 q-23 57 -23 129 q0 78 25 149 q25 71 71.5 124 q46.5 53 112.5 84.5 q66 31.5 147 31.5 q64 0 115.5 -21.5 q51.5 -21.5 87.5 -59.5 q36 -38 55.5 -90.5 q19.5 -52.5 19.5 -113.5 q0 -59 -14.5 -104 q-14.5 -45 -38 -76 q-23.5 -31 -54 -47 q-30.5 -16 -62.5 -16 q-13 0 -26 5.5 q-13 5.5 -23 16.5 q-10 11 -15 29 q-5 18 -2 43 l-4 0 q-29 -49 -64.5 -71.5 q-35.5 -22.5 -82.5 -22.5 q-20 0 -38.5 8 q-18.5 8 -33 24 q-14.5 16 -23 38.5 q-8.5 22.5 -8.5 51.5 q0 46 18 89.5 q18 43.5 49.5 77.5 q31.5 34 75 54 q43.5 20 94.5 20 q31 0 54.5 -5 q23.5 -5 43.5 -13 l-37 -181 q-14 -65 -5 -95 q9 -30 36 -31 q21 0 42 13.5 q21 13.5 37 39 q16 25.5 26 62 q10 36.5 10 80.5 q0 58 -16 105.5 q-16 47.5 -46.5 81.5 q-30.5 34 -75.5 52.5 q-45 18.5 -102 18.5 q-63 0 -118 -24.5 q-55 -24.5 -96.5 -70.5 q-41.5 -46 -65.5 -110.5 q-24 -64.5 -24 -143.5 q0 -62 19 -112.5 q19 -50.5 52.5 -86.5 q33.5 -36 80 -55.5 q46.5 -19.5 101.5 -19.5 q46 0 84 10 q38 10 69 28 l14 -34 Z" /><glyph glyph-name="A" unicode="A" d="M160 235 l-82 -235 l-48 0 l238 674 l46 0 l237 -674 l-49 0 l-82 235 l-260 0 ZM405 275 l-79 223 q-12 35 -19.5 63.5 q-7.5 28.5 -15.5 57.5 l-2 0 q-8 -30 -16 -58.5 q-8 -28.5 -19 -60.5 l-80 -225 l231 0 Z" /><glyph glyph-name="B" unicode="B" d="M80 665 q28 6 61.5 10 q33.5 4 71.5 4 q62 0 104 -13.5 q42 -13.5 69 -41.5 q42 -42 42 -111 q0 -52 -32.5 -92.5 q-32.5 -40.5 -83.5 -57.5 l0 -3 q22 -5 47 -17 q25 -12 46 -33 q21 -21 35 -51 q14 -30 14 -71 q0 -42 -13.5 -74 q-13.5 -32 -36.5 -55 q-33 -35 -86 -49.5 q-53 -14.5 -123 -14.5 q-38 0 -66.5 2 q-28.5 2 -48.5 4 l0 664 ZM127 378 l95 0 q36 0 65 10 q29 10 49.5 28 q20.5 18 31.5 42 q11 24 11 52 q0 35 -12.5 59.5 q-12.5 24.5 -34.5 40 q-22 15.5 -53.5 22.5 q-31.5 7 -68.5 7 q-32 0 -52 -2 q-20 -2 -31 -5 l0 -254 ZM127 40 q14 -3 34 -4 q20 -1 46 -1 q39 0 74.5 7.5 q35.5 7.5 62.5 25.5 q27 18 43.5 47 q16.5 29 16.5 72 q0 40 -15.5 68.5 q-15.5 28.5 -42.5 47 q-27 18.5 -62.5 27.5 q-35.5 9 -74.5 9 l-82 0 l0 -299 Z" /><glyph glyph-name="C" unicode="C" d="M525 23 q-25 -13 -70.5 -23 q-45.5 -10 -105.5 -10 q-60 0 -116 20 q-56 20 -99.5 61.5 q-43.5 41.5 -70 106.5 q-26.5 65 -26.5 155 q0 77 23.5 141.5 q23.5 64.5 67 111 q43.5 46.5 105 72.5 q61.5 26 138.5 26 q62 0 99 -10 q37 -10 52 -18 l-15 -41 q-26 13 -60 21 q-34 8 -76 8 q-65 0 -117.5 -21 q-52.5 -21 -89.5 -61.5 q-37 -40.5 -57 -98.5 q-20 -58 -20 -131 q0 -70 19 -125.5 q19 -55.5 54.5 -94.5 q35.5 -39 87 -60 q51.5 -21 116.5 -21 q42 0 80.5 8 q38.5 8 66.5 22 l14 -38 Z" /><glyph glyph-name="D" unicode="D" d="M80 665 q38 6 79.5 10 q41.5 4 87.5 4 q90 0 156 -23 q66 -23 107 -66 q40 -42 62 -99.5 q22 -57.5 22 -136.5 q0 -78 -21 -143 q-21 -65 -66 -115 q-44 -48 -116 -74.5 q-72 -26.5 -167 -26.5 q-38 0 -73.5 1 q-35.5 1 -70.5 5 l0 664 ZM127 40 q20 -3 47 -4 q27 -1 57 -1 q157 0 236 83.5 q79 83.5 79 232.5 q0 64 -17.5 117.5 q-17.5 53.5 -54.5 91 q-37 37.5 -94 58.5 q-57 21 -136 21 q-37 0 -66.5 -3 q-29.5 -3 -50.5 -7 l0 -589 Z" /><glyph glyph-name="E" unicode="E" d="M391 335 l-264 0 l0 -295 l295 0 l0 -40 l-342 0 l0 674 l327 0 l0 -40 l-280 0 l0 -259 l264 0 l0 -40 Z" /><glyph glyph-name="F" unicode="F" d="M80 674 l327 0 l0 -40 l-280 0 l0 -268 l257 0 l0 -40 l-257 0 l0 -326 l-47 0 l0 674 Z" /><glyph glyph-name="G" unicode="G" d="M552 29 q-26 -11 -75 -23.5 q-49 -12.5 -116 -12.5 q-65 0 -123.5 19 q-58.5 19 -108.5 68 q-42 41 -67 106 q-25 65 -25 148 q0 72 23 135.5 q23 63.5 66.5 110.5 q43.5 47 107.5 74 q64 27 147 27 q53 0 93 -10 q40 -10 60 -20 l-16 -39 q-26 12 -59 20 q-33 8 -80 8 q-67 0 -121 -21 q-54 -21 -92 -60.5 q-38 -39.5 -58.5 -95.5 q-20.5 -56 -20.5 -126 q0 -72 20 -128.5 q20 -56.5 56.5 -95.5 q36.5 -39 88.5 -59 q52 -20 117 -20 q51 0 84.5 6.5 q33.5 6.5 51.5 15.5 l0 239 l-153 0 l0 39 l200 0 l0 -305 Z" /><glyph glyph-name="H" unicode="H" d="M127 674 l0 -297 l362 0 l0 297 l47 0 l0 -674 l-47 0 l0 337 l-362 0 l0 -337 l-47 0 l0 674 l47 0 Z" /><glyph glyph-name="I" unicode="I" d="M127 674 l0 -674 l-47 0 l0 674 l47 0 Z" /><glyph glyph-name="K" unicode="K" d="M80 674 l47 0 l0 -341 l4 0 q14 20 28.5 37.5 q14.5 17.5 28.5 33.5 l232 270 l58 0 l-251 -286 l274 -388 l-57 0 l-249 355 l-68 -76 l0 -279 l-47 0 l0 674 Z" /><glyph glyph-name="L" unicode="L" d="M80 674 l47 0 l0 -634 l294 0 l0 -40 l-341 0 l0 674 Z" /><glyph glyph-name="M" unicode="M" d="M637 320 q-2 38 -4.5 79 q-2.5 41 -4.5 80.5 q-2 39.5 -3 75 q-1 35.5 -1 63.5 l-3 0 q-17 -56 -38.5 -116.5 q-21.5 -60.5 -49.5 -135.5 l-139 -366 l-33 0 l-130 357 q-28 79 -49 141.5 q-21 62.5 -36 119.5 l-3 0 q-1 -60 -4.5 -142 q-3.5 -82 -9.5 -166 l-21 -310 l-46 0 l48 674 l54 0 l142 -386 q23 -65 41 -117 q18 -52 32 -102 l3 0 q13 48 30.5 99 q17.5 51 43.5 119 l146 387 l57 0 l45 -674 l-47 0 l-20 320 Z" /><glyph glyph-name="N" unicode="N" d="M80 0 l0 674 l45 0 l255 -395 q40 -63 70 -114 q30 -51 54 -101 l2 1 q-3 35 -4.5 67.5 q-1.5 32.5 -2 65.5 q-0.5 33 -1 68 q-0.5 35 -0.5 75 l0 333 l46 0 l0 -674 l-44 0 l-250 390 q-37 59 -69.5 112.5 q-32.5 53.5 -58.5 107.5 l-2 -1 q2 -32 3 -62.5 q1 -30.5 2 -62.5 q1 -32 1 -68 q0 -36 0 -79 l0 -337 l-46 0 Z" /><glyph glyph-name="O" unicode="O" d="M324 -11 q-60 0 -112.5 23.5 q-52.5 23.5 -91.5 67.5 q-39 44 -61 107.5 q-22 63.5 -22 143.5 q0 83 23 149 q23 66 63 111.5 q40 45.5 93.5 69.5 q53.5 24 115.5 24 q61 0 113.5 -23.5 q52.5 -23.5 90.5 -68 q38 -44.5 59.5 -108 q21.5 -63.5 21.5 -142.5 q0 -89 -24.5 -155.5 q-24.5 -66.5 -65.5 -110.5 q-41 -44 -93.5 -66 q-52.5 -22 -109.5 -22 ZM325 29 q59 0 104 25.5 q45 25.5 76 68.5 q31 43 46.5 99 q15.5 56 15.5 118 q0 53 -14.5 107.5 q-14.5 54.5 -44 98.5 q-29.5 44 -74.5 71.5 q-45 27.5 -107 27.5 q-62 0 -107.5 -27 q-45.5 -27 -75 -71 q-29.5 -44 -44 -100.5 q-14.5 -56.5 -14.5 -114.5 q0 -56 15.5 -110.5 q15.5 -54.5 46 -97.5 q30.5 -43 75 -69 q44.5 -26 102.5 -26 Z" /><glyph glyph-name="P" unicode="P" d="M80 666 q29 5 64 9 q35 4 77 4 q60 0 103.5 -14.5 q43.5 -14.5 71.5 -41.5 q24 -24 37.5 -57 q13.5 -33 13.5 -76 q0 -52 -18.5 -91 q-18.5 -39 -50.5 -65.5 q-32 -26.5 -76 -39.5 q-44 -13 -96 -13 q-45 0 -79 7 l0 -288 l-47 0 l0 666 ZM127 330 q17 -5 38 -7 q21 -2 45 -2 q89 0 139 42 q50 42 50 123 q0 39 -13 68 q-13 29 -37 47.5 q-24 18.5 -57 28 q-33 9.5 -73 9.5 q-32 0 -55 -2.5 q-23 -2.5 -37 -5.5 l0 -301 Z" /><glyph glyph-name="Q" unicode="Q" d="M609 -87 q-64 15 -129.5 33.5 q-65.5 18.5 -116.5 33.5 q-10 3 -19 6 q-9 3 -17 3 q-60 1 -113 24 q-53 23 -92.5 66.5 q-39.5 43.5 -62 106.5 q-22.5 63 -22.5 144 q0 85 23 151 q23 66 63 111.5 q40 45.5 94 69 q54 23.5 116 23.5 q61 0 113 -23.5 q52 -23.5 90 -68 q38 -44.5 59.5 -108 q21.5 -63.5 21.5 -142.5 q0 -70 -15 -125.5 q-15 -55.5 -42 -97.5 q-27 -42 -65 -70.5 q-38 -28.5 -84 -43.5 l0 -3 q56 -14 112 -26.5 q56 -12.5 101 -20.5 l-15 -43 ZM326 29 q59 0 104 25.5 q45 25.5 76 68.5 q31 43 46.5 99 q15.5 56 15.5 118 q0 53 -14.5 107.5 q-14.5 54.5 -44 98.5 q-29.5 44 -74.5 71.5 q-45 27.5 -107 27.5 q-62 0 -107.5 -27 q-45.5 -27 -75 -71 q-29.5 -44 -44 -100.5 q-14.5 -56.5 -14.5 -114.5 q0 -56 15.5 -110.5 q15.5 -54.5 46 -97.5 q30.5 -43 75 -69 q44.5 -26 102.5 -26 Z" /><glyph glyph-name="R" unicode="R" d="M80 665 q30 7 69 10.5 q39 3.5 73 3.5 q65 0 107.5 -14 q42.5 -14 70.5 -42 q22 -21 34.5 -53 q12.5 -32 12.5 -67 q0 -69 -36 -112.5 q-36 -43.5 -94 -63.5 l0 -2 q41 -13 66 -50 q25 -37 37 -95 q17 -79 28 -120 q11 -41 22 -60 l-50 0 q-8 15 -18.5 57.5 q-10.5 42.5 -23.5 106.5 q-16 74 -50 108 q-34 34 -100 37 l-101 0 l0 -309 l-47 0 l0 665 ZM127 347 l103 0 q77 0 123 40 q46 40 46 108 q0 76 -49.5 110.5 q-49.5 34.5 -128.5 34.5 q-33 0 -57 -3 q-24 -3 -37 -6 l0 -284 Z" /><glyph glyph-name="S" unicode="S" d="M59 74 q28 -20 65 -32 q37 -12 79 -12 q75 0 117.5 38.5 q42.5 38.5 42.5 101.5 q0 57 -31.5 93 q-31.5 36 -102.5 65 q-78 28 -124 72 q-46 44 -46 114 q0 37 14.5 68.5 q14.5 31.5 40 54 q25.5 22.5 61 35 q35.5 12.5 77.5 12.5 q47 0 80.5 -10 q33.5 -10 50.5 -21 l-18 -40 q-14 10 -44 20.5 q-30 10.5 -72 10.5 q-40 0 -67.5 -11.5 q-27.5 -11.5 -44 -29.5 q-16.5 -18 -24 -39.5 q-7.5 -21.5 -7.5 -41.5 q0 -56 33 -89.5 q33 -33.5 104 -61.5 q41 -17 72 -36 q31 -19 52 -42 q21 -23 31.5 -52 q10.5 -29 10.5 -66 q0 -37 -13 -70.5 q-13 -33.5 -39.5 -59 q-26.5 -25.5 -66 -40.5 q-39.5 -15 -91.5 -15 q-43 0 -87.5 12.5 q-44.5 12.5 -70.5 31.5 l18 40 Z" /><glyph glyph-name="T" unicode="T" d="M205 634 l-214 0 l0 40 l475 0 l0 -40 l-214 0 l0 -634 l-47 0 l0 634 Z" /><glyph glyph-name="U" unicode="U" d="M127 674 l0 -410 q0 -63 13.5 -107.5 q13.5 -44.5 37.5 -72.5 q24 -28 56 -41 q32 -13 68 -13 q40 0 74 13.5 q34 13.5 58.5 42 q24.5 28.5 38 72.5 q13.5 44 13.5 106 l0 410 l47 0 l0 -406 q0 -77 -19 -130 q-19 -53 -51 -86 q-32 -33 -74.5 -48 q-42.5 -15 -89.5 -15 q-43 0 -82.5 13.5 q-39.5 13.5 -70 45.5 q-30.5 32 -48.5 83.5 q-18 51.5 -18 128.5 l0 414 l47 0 Z" /><glyph glyph-name="V" unicode="V" d="M221 0 l-219 674 l49 0 l117 -359 q23 -73 43 -138 q20 -65 34 -122 l3 0 q14 58 36 123.5 q22 65.5 47 136.5 l128 359 l50 0 l-243 -674 l-45 0 Z" /><glyph glyph-name="W" unicode="W" d="M190 0 l-175 674 l48 0 l97 -379 q17 -66 31 -124.5 q14 -58.5 24 -107.5 l2 0 q8 48 24.5 107 q16.5 59 35.5 126 l108 378 l46 0 l98 -375 q16 -62 31 -122.5 q15 -60.5 23 -113.5 l2 0 q11 57 26.5 113 q15.5 56 34.5 120 l107 378 l49 0 l-198 -674 l-45 0 l-100 388 q-20 74 -32 127 q-12 53 -19 101 l-2 0 q-8 -48 -22 -101 q-14 -53 -37 -126 l-112 -389 l-45 0 Z" /><glyph glyph-name="Y" unicode="Y" d="M226 0 l0 292 l-210 382 l53 0 l108 -199 q21 -40 39.5 -74.5 q18.5 -34.5 35.5 -71.5 l2 0 q15 35 34.5 70.5 q19.5 35.5 42.5 76.5 l112 198 l53 0 l-223 -383 l0 -291 l-47 0 Z" /><glyph glyph-name="Z" unicode="Z" d="M33 31 l396 600 l0 3 l-363 0 l0 40 l423 0 l0 -31 l-396 -600 l0 -3 l400 0 l0 -40 l-460 0 l0 31 Z" /><glyph glyph-name="a" unicode="a" d="M372 114 q0 -29 1 -58 q1 -29 6 -56 l-44 0 l-7 68 l-2 0 q-9 -14 -23 -28 q-14 -14 -32.5 -25.5 q-18.5 -11.5 -42 -18.5 q-23.5 -7 -51.5 -7 q-35 0 -61.5 11.5 q-26.5 11.5 -43.5 30 q-17 18.5 -25.5 42.5 q-8.5 24 -8.5 48 q0 84 72 130.5 q72 46.5 215 44.5 l0 13 q0 19 -3.5 43.5 q-3.5 24.5 -15.5 46.5 q-12 22 -36 37 q-24 15 -65 15 q-31 0 -61.5 -9.5 q-30.5 -9.5 -55.5 -26.5 l-15 35 q32 22 66 31.5 q34 9.5 71 9.5 q50 0 81.5 -17 q31.5 -17 49.5 -44 q18 -27 24.5 -60.5 q6.5 -33.5 6.5 -66.5 l0 -189 ZM325 257 q-38 1 -79.5 -3 q-41.5 -4 -76.5 -17.5 q-35 -13.5 -58 -39.5 q-23 -26 -23 -69 q0 -26 8 -44.5 q8 -18.5 21 -30.5 q13 -12 30 -18 q17 -6 35 -6 q29 0 52 8 q23 8 40 21.5 q17 13.5 28.5 30.5 q11.5 17 17.5 35 q5 18 5 29 l0 104 Z" /><glyph glyph-name="b" unicode="b" d="M79 709 l47 0 l0 -317 l2 0 q24 47 67 73 q43 26 104 26 q44 0 81 -18 q37 -18 63.5 -50.5 q26.5 -32.5 41 -77.5 q14.5 -45 14.5 -100 q0 -65 -18 -113 q-18 -48 -47.5 -79.5 q-29.5 -31.5 -67 -47.5 q-37.5 -16 -76.5 -16 q-112 0 -167 96 l-3 0 l0 -85 l-45 0 q2 25 3 55 q1 30 1 56 l0 598 ZM126 184 q0 -8 1 -17 q1 -9 3 -18 q16 -57 58 -88.5 q42 -31.5 96 -31.5 q40 0 71 16 q31 16 52.5 44.5 q21.5 28.5 32.5 67.5 q11 39 11 86 q0 41 -10.5 79 q-10.5 38 -31.5 66.5 q-21 28.5 -51.5 45.5 q-30.5 17 -70.5 17 q-52 0 -95.5 -34 q-43.5 -34 -59.5 -93 q-2 -9 -4 -19 q-2 -10 -2 -22 l0 -99 Z" /><glyph glyph-name="d" unicode="d" d="M453 709 l0 -598 q0 -26 1 -56 q1 -30 3 -55 l-45 0 l0 89 l-3 0 q-18 -39 -60 -69.5 q-42 -30.5 -107 -30.5 q-43 0 -79.5 17.5 q-36.5 17.5 -63.5 49.5 q-27 32 -42.5 76.5 q-15.5 44.5 -15.5 99.5 q0 60 16.5 108 q16.5 48 45 81.5 q28.5 33.5 67 51.5 q38.5 18 82.5 18 q30 0 54 -7 q24 -7 43 -18.5 q19 -11.5 33 -26.5 q14 -15 22 -31 l2 0 l0 301 l47 0 ZM406 291 q0 21 -5 43 q-6 24 -19 45.5 q-13 21.5 -32 37 q-19 15.5 -43.5 25 q-24.5 9.5 -52.5 9.5 q-38 0 -69 -16 q-31 -16 -52.5 -45 q-21.5 -29 -33 -68.5 q-11.5 -39.5 -11.5 -85.5 q0 -41 10 -78 q10 -37 30.5 -66 q20.5 -29 51 -46 q30.5 -17 72.5 -17 q49 0 91 31.5 q42 31.5 58 92.5 q5 20 5 39 l0 99 Z" /><glyph glyph-name="e" unicode="e" d="M87 246 q0 -59 14.5 -99.5 q14.5 -40.5 39 -66.5 q24.5 -26 57 -37.5 q32.5 -11.5 68.5 -11.5 q48 0 78.5 9 q30.5 9 50.5 18 l12 -37 q-14 -8 -50.5 -19.5 q-36.5 -11.5 -96.5 -11.5 q-51 0 -91.5 18 q-40.5 18 -69 50 q-28.5 32 -43.5 76.5 q-15 44.5 -15 97.5 q0 60 16 107.5 q16 47.5 44 81.5 q28 34 66.5 52 q38.5 18 83.5 18 q58 0 93.5 -24 q35.5 -24 55.5 -57.5 q20 -33.5 27 -70.5 q7 -37 7 -64 q0 -10 0 -16 q0 -6 -1 -14 l-346 1 ZM385 284 q0 26 -6 55.5 q-6 29.5 -22 54.5 q-16 25 -43 41.5 q-27 16.5 -69 16.5 q-38 0 -66 -16 q-28 -16 -47 -40.5 q-19 -24.5 -29 -54 q-10 -29.5 -13 -57.5 l295 0 Z" /><glyph glyph-name="f" unicode="f" d="M83 0 l0 442 l-69 0 l0 38 l69 0 l0 27 q0 45 8 84 q8 39 26.5 67.5 q18.5 28.5 48.5 45 q30 16.5 74 16.5 q23 0 41 -5 q18 -5 29 -12 l-15 -37 q-10 5 -24 9 q-14 4 -35 4 q-34 0 -54.5 -14 q-20.5 -14 -32 -37 q-11.5 -23 -15.5 -54.5 q-4 -31.5 -4 -65.5 l0 -28 l126 0 l0 -38 l-126 0 l0 -442 l-47 0 Z" /><glyph glyph-name="g" unicode="g" d="M453 70 q0 -141 -51 -209.5 q-51 -68.5 -172 -68.5 q-41 0 -81.5 10 q-40.5 10 -67.5 30 l17 38 q24 -16 58.5 -27.5 q34.5 -11.5 80.5 -11.5 q37 0 68 11 q31 11 53.5 35 q22.5 24 35 62.5 q12.5 38.5 12.5 94.5 l0 57 l-2 0 q-19 -36 -59 -63.5 q-40 -27.5 -103 -27.5 q-44 0 -81 18.5 q-37 18.5 -63.5 50 q-26.5 31.5 -41.5 74.5 q-15 43 -15 93 q0 63 18.5 111 q18.5 48 48.5 80 q30 32 67.5 48 q37.5 16 76.5 16 q34 0 60.5 -8.5 q26.5 -8.5 45.5 -22 q19 -13.5 31.5 -29 q12.5 -15.5 19.5 -30.5 l3 0 l0 79 l45 0 q-2 -26 -3 -56 q-1 -30 -1 -70 l0 -284 ZM406 297 q0 25 -6 46 q-7 21 -20 40.5 q-13 19.5 -31 34.5 q-18 15 -41.5 24 q-23.5 9 -52.5 9 q-37 0 -68 -15 q-31 -15 -53 -42.5 q-22 -27.5 -34 -66 q-12 -38.5 -12 -86.5 q0 -41 10.5 -78 q10.5 -37 31.5 -64.5 q21 -27.5 52 -43.5 q31 -16 72 -16 q46 0 86 27.5 q40 27.5 58 80.5 q8 26 8 50 l0 100 Z" /><glyph glyph-name="h" unicode="h" d="M79 709 l47 0 l0 -313 l2 0 q23 44 63 69.5 q40 25.5 96 25.5 q17 0 44.5 -6.5 q27.5 -6.5 53.5 -27.5 q26 -21 45 -60 q19 -39 19 -104 l0 -293 l-47 0 l0 287 q0 32 -6.5 61.5 q-6.5 29.5 -21.5 52 q-15 22.5 -39.5 36 q-24.5 13.5 -60.5 13.5 q-51 0 -88.5 -31.5 q-37.5 -31.5 -52.5 -76.5 q-7 -20 -7 -47 l0 -295 l-47 0 l0 709 Z" /><glyph glyph-name="i" unicode="i" d="M62 626 q0 17 11.5 29 q11.5 12 28.5 12 q17 0 29 -12 q12 -12 12 -29 q0 -17 -12 -28.5 q-12 -11.5 -29 -11.5 q-17 0 -28.5 11.5 q-11.5 11.5 -11.5 28.5 ZM79 0 l0 480 l47 0 l0 -480 l-47 0 Z" /><glyph glyph-name="k" unicode="k" d="M126 249 l2 0 q9 11 21.5 26 q12.5 15 23.5 26 l166 179 l58 0 l-190 -199 l216 -281 l-58 0 l-191 251 l-48 -51 l0 -200 l-47 0 l0 709 l47 0 l0 -460 Z" /><glyph glyph-name="l" unicode="l" d="M79 709 l47 0 l0 -709 l-47 0 l0 709 Z" /><glyph glyph-name="n" unicode="n" d="M79 365 q0 34 -1 60 q-1 26 -3 55 l46 0 l0 -85 l4 0 q19 40 61 68 q42 28 100 28 q17 0 44.5 -6.5 q27.5 -6.5 54 -27.5 q26.5 -21 45.5 -60.5 q19 -39.5 19 -105.5 l0 -291 l-47 0 l0 286 q0 32 -6.5 62 q-6.5 30 -21.5 52.5 q-15 22.5 -40 36 q-25 13.5 -61 13.5 q-50 0 -88 -31 q-38 -31 -52 -79 q-7 -19 -7 -42 l0 -298 l-47 0 l0 365 Z" /><glyph glyph-name="o" unicode="o" d="M262 491 q48 0 88 -17.5 q40 -17.5 68.5 -50 q28.5 -32.5 44.5 -78 q16 -45.5 16 -101.5 q0 -67 -20 -115.5 q-20 -48.5 -52.5 -79.5 q-32.5 -31 -72 -45.5 q-39.5 -14.5 -78.5 -14.5 q-45 0 -84.5 17 q-39.5 17 -68.5 49.5 q-29 32.5 -45.5 78 q-16.5 45.5 -16.5 102.5 q0 62 18 109.5 q18 47.5 49 80 q31 32.5 70.5 49 q39.5 16.5 83.5 16.5 ZM261 451 q-45 0 -77.5 -19 q-32.5 -19 -54 -49 q-21.5 -30 -31.5 -68 q-10 -38 -10 -76 q0 -45 12.5 -83.5 q12.5 -38.5 35 -66.5 q22.5 -28 53.5 -44 q31 -16 69 -16 q37 0 69 16 q32 16 55 44 q23 28 36 67 q13 39 13 86 q0 33 -9.5 69.5 q-9.5 36.5 -29.5 67.5 q-20 31 -52.5 51.5 q-32.5 20.5 -78.5 20.5 Z" /><glyph glyph-name="p" unicode="p" d="M79 327 q0 47 -1 83.5 q-1 36.5 -3 69.5 l47 0 l0 -89 l4 0 q26 48 69 74 q43 26 103 26 q45 0 82 -18 q37 -18 63.5 -50 q26.5 -32 41 -76.5 q14.5 -44.5 14.5 -98.5 q0 -65 -17.5 -113.5 q-17.5 -48.5 -46.5 -81 q-29 -32.5 -68 -48.5 q-39 -16 -81 -16 q-51 0 -92.5 22.5 q-41.5 22.5 -65.5 64.5 l-2 0 l0 -274 l-47 0 l0 525 ZM126 188 q0 -10 1 -19.5 q1 -9.5 3 -18.5 q15 -57 57.5 -89 q42.5 -32 95.5 -32 q40 0 71.5 16 q31.5 16 53 45 q21.5 29 32.5 68.5 q11 39.5 11 87.5 q0 40 -10.5 77 q-10.5 37 -31.5 65.5 q-21 28.5 -51.5 45.5 q-30.5 17 -70.5 17 q-52 0 -95.5 -34 q-43.5 -34 -58.5 -93 q-2 -10 -4.5 -20.5 q-2.5 -10.5 -2.5 -20.5 l0 -95 Z" /><glyph glyph-name="r" unicode="r" d="M80 338 q0 35 -1 71.5 q-1 36.5 -3 70.5 l45 0 l0 -96 l3 0 q16 45 51 76 q35 31 84 31 q8 0 18 -2 l0 -46 q-6 1 -11 1 q-5 0 -12 0 q-49 0 -82 -38 q-33 -38 -42 -95 q-2 -11 -3 -22.5 q-1 -11.5 -1 -22.5 l0 -266 l-47 0 l1 338 Z" /><glyph glyph-name="s" unicode="s" d="M60 63 q19 -12 46 -22.5 q27 -10.5 59 -10.5 q56 0 83 26.5 q27 26.5 27 64.5 q0 39 -24 63.5 q-24 24.5 -75 45.5 q-58 23 -89 55 q-31 32 -31 76 q0 26 10 49.5 q10 23.5 29 41.5 q19 18 46 28.5 q27 10.5 61 10.5 q32 0 59 -9 q27 -9 45 -21 l-19 -39 q-12 9 -34.5 19 q-22.5 10 -57.5 10 q-45 0 -68.5 -25 q-23.5 -25 -23.5 -58 q0 -37 24 -57.5 q24 -20.5 73 -40.5 q57 -23 89.5 -55.5 q32.5 -32.5 32.5 -87.5 q0 -63 -44 -100 q-44 -37 -116 -37 q-35 0 -66 9 q-31 9 -54 24 l18 40 Z" /><glyph glyph-name="t" unicode="t" d="M145 586 l0 -106 l133 0 l0 -38 l-133 0 l0 -313 q0 -47 15.5 -73 q15.5 -26 53.5 -26 q18 0 31 2 q13 2 22 5 l5 -36 q-11 -5 -27 -8 q-16 -3 -37 -3 q-33 0 -54.5 11 q-21.5 11 -34 30.5 q-12.5 19.5 -17.5 47 q-5 27.5 -5 59.5 l0 304 l-79 0 l0 38 l79 0 l0 88 l48 18 Z" /><glyph glyph-name="u" unicode="u" d="M441 117 q0 -32 1 -61 q1 -29 3 -56 l-46 0 l0 83 l-4 0 q-9 -16 -23 -33 q-14 -17 -34 -30.5 q-20 -13.5 -46 -22 q-26 -8.5 -57 -8.5 q-23 0 -51 8 q-28 8 -52 30.5 q-24 22.5 -40.5 63.5 q-16.5 41 -16.5 107 l0 282 l48 0 l0 -272 q0 -39 6.5 -71.5 q6.5 -32.5 21 -56 q14.5 -23.5 38 -37 q23.5 -13.5 58.5 -13.5 q26 0 48 8.5 q22 8.5 39.5 22.5 q17.5 14 30 31 q12.5 17 19.5 35 q4 11 6.5 24.5 q2.5 13.5 2.5 27.5 l0 301 l48 0 l0 -363 Z" /><glyph glyph-name="v" unicode="v" d="M65 480 l110 -298 q14 -35 25 -66 q11 -31 21 -61 l2 0 q19 57 47 127 l111 298 l50 0 l-191 -480 l-41 0 l-184 480 l50 0 Z" /></font>
</defs>
</svg>
